<svg width="40" height="40" viewBox="0 0 40 40" fill="none" xmlns="http://www.w3.org/2000/svg">
<mask id="path-1-inside-1_21_56" fill="white">
<path fill-rule="evenodd" clip-rule="evenodd" d="M20.0001 21.4142L31.293 32.7071L32.7072 31.2928L21.4143 20L32.7072 8.70706L31.293 7.29285L20.0001 18.5857L8.70718 7.29285L7.29297 8.70706L18.5859 20L7.29297 31.2928L8.70718 32.7071L20.0001 21.4142Z"/>
</mask>
<path d="M31.293 32.7071L29.8788 34.1213L31.293 35.5355L32.7072 34.1213L31.293 32.7071ZM20.0001 21.4142L21.4143 20L20.0001 18.5857L18.5859 20L20.0001 21.4142ZM32.7072 31.2928L34.1214 32.7071L35.5356 31.2928L34.1214 29.8786L32.7072 31.2928ZM21.4143 20L20.0001 18.5857L18.5859 20L20.0001 21.4142L21.4143 20ZM32.7072 8.70706L34.1214 10.1213L35.5356 8.70706L34.1214 7.29285L32.7072 8.70706ZM31.293 7.29285L32.7072 5.87863L31.293 4.46442L29.8788 5.87863L31.293 7.29285ZM20.0001 18.5857L18.5859 20L20.0001 21.4142L21.4143 20L20.0001 18.5857ZM8.70718 7.29285L10.1214 5.87863L8.70718 4.46442L7.29297 5.87863L8.70718 7.29285ZM7.29297 8.70706L5.87876 7.29285L4.46454 8.70706L5.87876 10.1213L7.29297 8.70706ZM18.5859 20L20.0001 21.4142L21.4143 20L20.0001 18.5857L18.5859 20ZM7.29297 31.2928L5.87876 29.8786L4.46454 31.2928L5.87875 32.7071L7.29297 31.2928ZM8.70718 32.7071L7.29297 34.1213L8.70718 35.5355L10.1214 34.1213L8.70718 32.7071ZM32.7072 31.2928L21.4143 20L18.5859 22.8284L29.8788 34.1213L32.7072 31.2928ZM31.293 29.8786L29.8788 31.2928L32.7072 34.1213L34.1214 32.7071L31.293 29.8786ZM20.0001 21.4142L31.293 32.7071L34.1214 29.8786L22.8285 18.5857L20.0001 21.4142ZM31.293 7.29285L20.0001 18.5857L22.8285 21.4142L34.1214 10.1213L31.293 7.29285ZM29.8788 8.70706L31.293 10.1213L34.1214 7.29285L32.7072 5.87863L29.8788 8.70706ZM21.4143 20L32.7072 8.70706L29.8788 5.87863L18.5859 17.1715L21.4143 20ZM7.29297 8.70706L18.5859 20L21.4143 17.1715L10.1214 5.87863L7.29297 8.70706ZM8.70718 10.1213L10.1214 8.70706L7.29297 5.87863L5.87876 7.29285L8.70718 10.1213ZM20.0001 18.5857L8.70718 7.29285L5.87876 10.1213L17.1716 21.4142L20.0001 18.5857ZM8.70718 32.7071L20.0001 21.4142L17.1716 18.5857L5.87876 29.8786L8.70718 32.7071ZM10.1214 31.2928L8.70718 29.8786L5.87875 32.7071L7.29297 34.1213L10.1214 31.2928ZM18.5859 20L7.29297 31.2928L10.1214 34.1213L21.4143 22.8284L18.5859 20Z" fill="black" mask="url(#path-1-inside-1_21_56)"/>
</svg>
