<svg width="40" height="40" viewBox="0 0 40 40" fill="none" xmlns="http://www.w3.org/2000/svg">
<path d="M4.28564 20C4.28564 11.3214 11.3214 4.28571 19.9999 4.28571C22.8914 4.28571 25.5999 5.06713 27.9271 6.42856H19.9999C18.2177 6.42856 16.4529 6.7796 14.8064 7.46163C13.1598 8.14365 11.6637 9.14332 10.4035 10.4035C9.14326 11.6638 8.14359 13.1599 7.46157 14.8064C6.77954 16.453 6.4285 18.2178 6.4285 20C6.4285 21.7822 6.77954 23.547 7.46157 25.1936C8.14359 26.8401 9.14326 28.3362 10.4035 29.5964C11.6637 30.8567 13.1598 31.8563 14.8064 32.5384C16.4529 33.2204 18.2177 33.5714 19.9999 33.5714V32.8571H29.0371C26.3926 34.7212 23.2353 35.7194 19.9999 35.7143C11.3214 35.7143 4.28564 28.6786 4.28564 20ZM29.9756 7.85713C30.7571 8.49999 31.4771 9.21856 32.1228 9.99999H19.9999V7.85713H29.9756ZM34.3428 13.5714C34.0091 12.8278 33.6179 12.1113 33.1728 11.4286H19.9999V13.5714H34.3428ZM34.9028 15C35.1342 15.6943 35.3199 16.41 35.4556 17.1428H19.9999V15H34.9014H34.9028ZM35.7142 20C35.7142 19.5186 35.6928 19.0428 35.6499 18.5714H19.9999V20.7143H35.6985C35.7085 20.4771 35.7142 20.24 35.7142 20ZM35.5699 22.1428C35.4699 22.8743 35.3199 23.59 35.1228 24.2857H19.9999V22.1428H35.5699ZM33.6128 27.8571C34.0071 27.1743 34.3528 26.4571 34.6428 25.7143H19.9999V27.8571H33.6114H33.6128ZM32.6785 29.2857C32.1128 30.0571 31.4785 30.7743 30.7856 31.4286H19.9999V29.2857H32.6785Z" fill="white" fill-opacity="0.5"/>
</svg>
