<svg width="60" height="60" viewBox="0 0 60 60" fill="none" xmlns="http://www.w3.org/2000/svg">
<path d="M52.5 16.875V52.5C52.5 54.4891 51.7098 56.3968 50.3033 57.8033C48.8968 59.2098 46.9891 60 45 60H15C13.0109 60 11.1032 59.2098 9.6967 57.8033C8.29018 56.3968 7.5 54.4891 7.5 52.5V7.5C7.5 5.51088 8.29018 3.60322 9.6967 2.1967C11.1032 0.790176 13.0109 0 15 0L35.625 0L52.5 16.875ZM41.25 16.875C39.7582 16.875 38.3274 16.2824 37.2725 15.2275C36.2176 14.1726 35.625 12.7418 35.625 11.25V3.75H15C14.0054 3.75 13.0516 4.14509 12.3483 4.84835C11.6451 5.55161 11.25 6.50544 11.25 7.5V52.5C11.25 53.4946 11.6451 54.4484 12.3483 55.1516C13.0516 55.8549 14.0054 56.25 15 56.25H45C45.9946 56.25 46.9484 55.8549 47.6516 55.1516C48.3549 54.4484 48.75 53.4946 48.75 52.5V16.875H41.25Z" fill="white"/>
</svg>
