<svg width="40" height="40" viewBox="0 0 40 40" fill="none" xmlns="http://www.w3.org/2000/svg">
<path d="M15.8332 5.83335V15.8334H5.83317C5.39114 15.8334 4.96722 16.0089 4.65466 16.3215C4.3421 16.6341 4.1665 17.058 4.1665 17.5V34.1667C4.1665 34.6087 4.3421 35.0326 4.65466 35.3452C4.96722 35.6578 5.39114 35.8334 5.83317 35.8334H22.4998C22.9419 35.8334 23.3658 35.6578 23.6783 35.3452C23.9909 35.0326 24.1665 34.6087 24.1665 34.1667V24.1667H34.1665C34.6085 24.1667 35.0325 23.9911 35.345 23.6785C35.6576 23.366 35.8332 22.942 35.8332 22.5V5.83335C35.8332 5.39133 35.6576 4.9674 35.345 4.65484C35.0325 4.34228 34.6085 4.16669 34.1665 4.16669H17.4998C17.0578 4.16669 16.6339 4.34228 16.3213 4.65484C16.0088 4.9674 15.8332 5.39133 15.8332 5.83335V5.83335Z" stroke="white" stroke-opacity="0.5" stroke-width="4" stroke-linecap="round" stroke-linejoin="round"/>
</svg>
