<svg width="40" height="40" viewBox="0 0 40 40" fill="none" xmlns="http://www.w3.org/2000/svg">
<path d="M33.3332 30V21.6667H38.3332V18.3334H33.3332V10C33.3332 9.11597 32.982 8.26812 32.3569 7.643C31.7317 7.01788 30.8839 6.66669 29.9998 6.66669H9.99984C9.11578 6.66669 8.26794 7.01788 7.64281 7.643C7.01769 8.26812 6.6665 9.11597 6.6665 10V18.3334H1.6665V21.6667H6.6665V30C6.6665 30.8841 7.01769 31.7319 7.64281 32.357C8.26794 32.9822 9.11578 33.3334 9.99984 33.3334H29.9998C30.8839 33.3334 31.7317 32.9822 32.3569 32.357C32.982 31.7319 33.3332 30.8841 33.3332 30ZM9.99984 10H29.9998V18.3334H9.99984V10Z" fill="white"/>
</svg>
