<svg width="40" height="40" viewBox="0 0 40 40" fill="none" xmlns="http://www.w3.org/2000/svg">
<path d="M20 30V27.5H22.5V30H20Z" fill="white" fill-opacity="0.5"/>
<path d="M22.5 35V32.5H20V35H5V2.5H2.5V35C2.5 35.663 2.76339 36.2989 3.23223 36.7678C3.70107 37.2366 4.33696 37.5 5 37.5H37.5V35H22.5Z" fill="white" fill-opacity="0.5"/>
<path d="M32.5665 24.5988C32.2902 25.4066 31.7798 26.1138 31.1001 26.6305C30.4205 27.1472 29.6025 27.4499 28.7502 27.5C26.0377 27.5 24.6102 23.3337 23.1002 18.9225C22.6552 17.6237 22.1952 16.285 21.6777 15H22.5002V12.5H20.5277C19.0152 9.64375 16.9777 7.5 13.7502 7.5C9.15271 7.5 7.62771 11.9163 7.56396 12.105L9.93396 12.9012C10.2102 12.0934 10.7206 11.3862 11.4003 10.8695C12.0799 10.3528 12.898 10.0501 13.7502 10C17.4002 10 19.0952 14.9475 20.734 19.7325C21.0527 20.66 21.3715 21.595 21.7115 22.5H20.0002V25H22.7527C24.1065 27.8612 25.8727 30 28.7502 30C33.3477 30 34.8727 25.5837 34.9365 25.395L32.5665 24.5988ZM20.0002 10V7.5H22.5002V10H20.0002ZM20.0002 5V2.5H22.5002V5H20.0002Z" fill="white" fill-opacity="0.5"/>
</svg>
