<svg width="40" height="40" viewBox="0 0 40 40" fill="none" xmlns="http://www.w3.org/2000/svg">
<path fill-rule="evenodd" clip-rule="evenodd" d="M20 1.89331L9.39338 12.5C7.20843 14.6845 5.75138 17.4905 5.22137 20.5345C4.69137 23.5784 5.11427 26.7117 6.43228 29.5062C7.75029 32.3007 9.89909 34.62 12.585 36.1472C15.2709 37.6743 18.3629 38.3348 21.4384 38.0383C24.2696 37.7657 26.965 36.6938 29.2101 34.9476C31.4552 33.2013 33.1576 30.8527 34.1187 28.1757C35.0797 25.4987 35.2599 22.6036 34.638 19.8281C34.0162 17.0526 32.6181 14.5111 30.6067 12.5L20 1.89331ZM11.7501 14.8566L20 6.60664V34.7733C17.6925 34.7735 15.4367 34.0893 13.518 32.8074C11.5992 31.5255 10.1038 29.7033 9.22066 27.5714C8.33757 25.4395 8.10653 23.0936 8.55676 20.8304C9.00699 18.5671 10.1183 16.4883 11.7501 14.8566Z" fill="white"/>
</svg>
