<svg width="40" height="40" viewBox="0 0 40 40" fill="none" xmlns="http://www.w3.org/2000/svg">
<path fill-rule="evenodd" clip-rule="evenodd" d="M13.75 5C14.0815 5 14.3995 5.1317 14.6339 5.36612C14.8683 5.60054 15 5.91848 15 6.25V12.0833C15 12.8569 14.6927 13.5987 14.1457 14.1457C13.5987 14.6927 12.8569 15 12.0833 15H6.25C5.91848 15 5.60054 14.8683 5.36612 14.6339C5.1317 14.3995 5 14.0815 5 13.75C5 13.4185 5.1317 13.1005 5.36612 12.8661C5.60054 12.6317 5.91848 12.5 6.25 12.5H12.0833C12.1938 12.5 12.2998 12.4561 12.378 12.378C12.4561 12.2998 12.5 12.1938 12.5 12.0833V6.25C12.5 5.91848 12.6317 5.60054 12.8661 5.36612C13.1005 5.1317 13.4185 5 13.75 5ZM26.25 5C26.5815 5 26.8995 5.1317 27.1339 5.36612C27.3683 5.60054 27.5 5.91848 27.5 6.25V12.0833C27.5 12.3133 27.6867 12.5 27.9167 12.5H33.75C34.0815 12.5 34.3995 12.6317 34.6339 12.8661C34.8683 13.1005 35 13.4185 35 13.75C35 14.0815 34.8683 14.3995 34.6339 14.6339C34.3995 14.8683 34.0815 15 33.75 15H27.9167C27.1431 15 26.4013 14.6927 25.8543 14.1457C25.3073 13.5987 25 12.8569 25 12.0833V6.25C25 5.91848 25.1317 5.60054 25.3661 5.36612C25.6005 5.1317 25.9185 5 26.25 5ZM5 26.25C5 25.9185 5.1317 25.6005 5.36612 25.3661C5.60054 25.1317 5.91848 25 6.25 25H12.0833C13.6933 25 15 26.3067 15 27.9167V33.75C15 34.0815 14.8683 34.3995 14.6339 34.6339C14.3995 34.8683 14.0815 35 13.75 35C13.4185 35 13.1005 34.8683 12.8661 34.6339C12.6317 34.3995 12.5 34.0815 12.5 33.75V27.9167C12.5 27.8062 12.4561 27.7002 12.378 27.622C12.2998 27.5439 12.1938 27.5 12.0833 27.5H6.25C5.91848 27.5 5.60054 27.3683 5.36612 27.1339C5.1317 26.8995 5 26.5815 5 26.25ZM25 27.9167C25 26.3067 26.3067 25 27.9167 25H33.75C34.0815 25 34.3995 25.1317 34.6339 25.3661C34.8683 25.6005 35 25.9185 35 26.25C35 26.5815 34.8683 26.8995 34.6339 27.1339C34.3995 27.3683 34.0815 27.5 33.75 27.5H27.9167C27.8062 27.5 27.7002 27.5439 27.622 27.622C27.5439 27.7002 27.5 27.8062 27.5 27.9167V33.75C27.5 34.0815 27.3683 34.3995 27.1339 34.6339C26.8995 34.8683 26.5815 35 26.25 35C25.9185 35 25.6005 34.8683 25.3661 34.6339C25.1317 34.3995 25 34.0815 25 33.75V27.9167Z" fill="white"/>
</svg>
