<svg width="100" height="100" viewBox="0 0 100 100" fill="none" xmlns="http://www.w3.org/2000/svg">
<path d="M65.625 50C69.3334 50 72.9585 51.0997 76.042 53.1599C79.1254 55.2202 81.5286 58.1486 82.9478 61.5747C84.3669 65.0008 84.7382 68.7708 84.0147 72.4079C83.2913 76.0451 81.5055 79.386 78.8833 82.0083C76.261 84.6305 72.9201 86.4163 69.283 87.1397C65.6458 87.8632 61.8758 87.4919 58.4497 86.0727C55.0236 84.6536 52.0952 82.2504 50.035 79.1669C47.9747 76.0835 46.875 72.4584 46.875 68.75C46.875 63.7772 48.8504 59.0081 52.3668 55.4917C55.8831 51.9754 60.6522 50 65.625 50ZM65.625 43.75C60.6805 43.75 55.847 45.2162 51.7358 47.9633C47.6245 50.7103 44.4202 54.6148 42.528 59.1829C40.6358 63.7511 40.1407 68.7777 41.1054 73.6273C42.07 78.4768 44.451 82.9314 47.9473 86.4277C51.4437 89.924 55.8982 92.305 60.7478 93.2696C65.5973 94.2343 70.6239 93.7392 75.1921 91.847C79.7603 89.9548 83.6647 86.7505 86.4118 82.6393C89.1588 78.528 90.625 73.6945 90.625 68.75C90.625 62.1196 87.9911 55.7607 83.3027 51.0723C78.6143 46.3839 72.2554 43.75 65.625 43.75Z" fill="white"/>
<path d="M81.25 12.5H18.75C17.0924 12.5 15.5027 13.1585 14.3306 14.3306C13.1585 15.5027 12.5 17.0924 12.5 18.75V81.25C12.5 82.9076 13.1585 84.4973 14.3306 85.6694C15.5027 86.8415 17.0924 87.5 18.75 87.5H31.25V81.25H18.75V37.5H87.5V18.75C87.5 17.0924 86.8415 15.5027 85.6694 14.3306C84.4973 13.1585 82.9076 12.5 81.25 12.5ZM18.75 31.25V18.75H81.25V31.25H18.75Z" fill="white"/>
<path d="M59.375 59.375V78.125L75 68.75L59.375 59.375Z" fill="white"/>
</svg>
