<svg width="42" height="42" viewBox="0 0 42 42" fill="none" xmlns="http://www.w3.org/2000/svg">
<path d="M19.3332 5.58331C19.3332 5.25179 19.2015 4.93385 18.9671 4.69943C18.7326 4.46501 18.4147 4.33331 18.0832 4.33331H9.74984C8.31325 4.33331 6.9355 4.904 5.91968 5.91982C4.90385 6.93564 4.33317 8.31339 4.33317 9.74998V18.0833C4.33317 18.4148 4.46487 18.7328 4.69929 18.9672C4.93371 19.2016 5.25165 19.3333 5.58317 19.3333C5.91469 19.3333 6.23263 19.2016 6.46705 18.9672C6.70147 18.7328 6.83317 18.4148 6.83317 18.0833V9.74998C6.83317 8.13998 8.13984 6.83331 9.74984 6.83331H18.0832C18.4147 6.83331 18.7326 6.70162 18.9671 6.4672C19.2015 6.23278 19.3332 5.91483 19.3332 5.58331ZM23.9165 4.33331C23.585 4.33331 23.267 4.46501 23.0326 4.69943C22.7982 4.93385 22.6665 5.25179 22.6665 5.58331C22.6665 5.91483 22.7982 6.23278 23.0326 6.4672C23.267 6.70162 23.585 6.83331 23.9165 6.83331H32.2498C33.8598 6.83331 35.1665 8.13998 35.1665 9.74998V18.0833C35.1665 18.4148 35.2982 18.7328 35.5326 18.9672C35.767 19.2016 36.085 19.3333 36.4165 19.3333C36.748 19.3333 37.066 19.2016 37.3004 18.9672C37.5348 18.7328 37.6665 18.4148 37.6665 18.0833V9.74998C37.6665 9.03865 37.5264 8.33429 37.2542 7.67711C36.982 7.01993 36.583 6.4228 36.08 5.91982C35.577 5.41683 34.9799 5.01785 34.3227 4.74563C33.6655 4.47342 32.9612 4.33331 32.2498 4.33331H23.9165ZM23.9165 37.6666C23.585 37.6666 23.267 37.535 23.0326 37.3005C22.7982 37.0661 22.6665 36.7482 22.6665 36.4166C22.6665 36.0851 22.7982 35.7672 23.0326 35.5328C23.267 35.2983 23.585 35.1666 23.9165 35.1666H32.2498C33.0234 35.1666 33.7652 34.8594 34.3122 34.3124C34.8592 33.7654 35.1665 33.0235 35.1665 32.25V23.9166C35.1665 23.5851 35.2982 23.2672 35.5326 23.0328C35.767 22.7983 36.085 22.6666 36.4165 22.6666C36.748 22.6666 37.066 22.7983 37.3004 23.0328C37.5348 23.2672 37.6665 23.5851 37.6665 23.9166V32.25C37.6665 32.9613 37.5264 33.6657 37.2542 34.3228C36.982 34.98 36.583 35.5772 36.08 36.0801C35.577 36.5831 34.9799 36.9821 34.3227 37.2543C33.6655 37.5265 32.9612 37.6666 32.2498 37.6666H23.9165ZM7.6665 21C6.34042 21 5.06865 21.5268 4.13097 22.4644C3.19329 23.4021 2.6665 24.6739 2.6665 26V34.3333C2.6665 35.26 2.91817 36.1283 3.35817 36.8733L9.18317 31.05C9.53139 30.7018 9.94479 30.4255 10.3998 30.2371C10.8547 30.0486 11.3424 29.9516 11.8348 29.9516C12.3273 29.9516 12.8149 30.0486 13.2699 30.2371C13.7249 30.4255 14.1383 30.7018 14.4865 31.05L20.3098 36.8733C20.7498 36.1283 21.0015 35.26 21.0015 34.3333V26C21.0015 24.6739 20.4747 23.4021 19.537 22.4644C18.5994 21.5268 17.3276 21 16.0015 21H7.6665ZM7.6665 39.3333C6.77309 39.335 5.89571 39.0961 5.1265 38.6416L10.9498 32.8166C11.1842 32.5826 11.5019 32.4511 11.8332 32.4511C12.1644 32.4511 12.4821 32.5826 12.7165 32.8166L18.5398 38.64C17.7708 39.0949 16.8934 39.3344 15.9998 39.3333H7.6665ZM15.9998 27.6666C15.5578 27.6666 15.1339 27.4911 14.8213 27.1785C14.5088 26.8659 14.3332 26.442 14.3332 26C14.3332 25.558 14.5088 25.134 14.8213 24.8215C15.1339 24.5089 15.5578 24.3333 15.9998 24.3333C16.4419 24.3333 16.8658 24.5089 17.1783 24.8215C17.4909 25.134 17.6665 25.558 17.6665 26C17.6665 26.442 17.4909 26.8659 17.1783 27.1785C16.8658 27.4911 16.4419 27.6666 15.9998 27.6666Z" fill="white"/>
<rect x="0.5" y="0.5" width="41" height="41" rx="8.5" stroke="#040F35"/>
</svg>
