<svg width="40" height="40" viewBox="0 0 40 40" fill="none" xmlns="http://www.w3.org/2000/svg">
<path d="M18.3332 4.58331C18.3332 4.25179 18.2015 3.93385 17.9671 3.69943C17.7326 3.46501 17.4147 3.33331 17.0832 3.33331H8.74984C7.31325 3.33331 5.9355 3.904 4.91968 4.91982C3.90385 5.93564 3.33317 7.31339 3.33317 8.74998V17.0833C3.33317 17.4148 3.46487 17.7328 3.69929 17.9672C3.93371 18.2016 4.25165 18.3333 4.58317 18.3333C4.91469 18.3333 5.23263 18.2016 5.46705 17.9672C5.70147 17.7328 5.83317 17.4148 5.83317 17.0833V8.74998C5.83317 7.13998 7.13984 5.83331 8.74984 5.83331H17.0832C17.4147 5.83331 17.7326 5.70162 17.9671 5.4672C18.2015 5.23278 18.3332 4.91483 18.3332 4.58331ZM22.9165 3.33331C22.585 3.33331 22.267 3.46501 22.0326 3.69943C21.7982 3.93385 21.6665 4.25179 21.6665 4.58331C21.6665 4.91483 21.7982 5.23278 22.0326 5.4672C22.267 5.70162 22.585 5.83331 22.9165 5.83331H31.2498C32.8598 5.83331 34.1665 7.13998 34.1665 8.74998V17.0833C34.1665 17.4148 34.2982 17.7328 34.5326 17.9672C34.767 18.2016 35.085 18.3333 35.4165 18.3333C35.748 18.3333 36.066 18.2016 36.3004 17.9672C36.5348 17.7328 36.6665 17.4148 36.6665 17.0833V8.74998C36.6665 8.03865 36.5264 7.33429 36.2542 6.67711C35.982 6.01993 35.583 5.4228 35.08 4.91982C34.577 4.41683 33.9799 4.01785 33.3227 3.74563C32.6655 3.47342 31.9612 3.33331 31.2498 3.33331H22.9165ZM22.9165 36.6666C22.585 36.6666 22.267 36.535 22.0326 36.3005C21.7982 36.0661 21.6665 35.7482 21.6665 35.4166C21.6665 35.0851 21.7982 34.7672 22.0326 34.5328C22.267 34.2983 22.585 34.1666 22.9165 34.1666H31.2498C32.0234 34.1666 32.7652 33.8594 33.3122 33.3124C33.8592 32.7654 34.1665 32.0235 34.1665 31.25V22.9166C34.1665 22.5851 34.2982 22.2672 34.5326 22.0328C34.767 21.7983 35.085 21.6666 35.4165 21.6666C35.748 21.6666 36.066 21.7983 36.3004 22.0328C36.5348 22.2672 36.6665 22.5851 36.6665 22.9166V31.25C36.6665 31.9613 36.5264 32.6657 36.2542 33.3228C35.982 33.98 35.583 34.5772 35.08 35.0801C34.577 35.5831 33.9799 35.9821 33.3227 36.2543C32.6655 36.5265 31.9612 36.6666 31.2498 36.6666H22.9165ZM6.6665 20C5.34042 20 4.06865 20.5268 3.13097 21.4644C2.19329 22.4021 1.6665 23.6739 1.6665 25V33.3333C1.6665 34.26 1.91817 35.1283 2.35817 35.8733L8.18317 30.05C8.53139 29.7018 8.94479 29.4255 9.39976 29.2371C9.85474 29.0486 10.3424 28.9516 10.8348 28.9516C11.3273 28.9516 11.8149 29.0486 12.2699 29.2371C12.7249 29.4255 13.1383 29.7018 13.4865 30.05L19.3098 35.8733C19.7498 35.1283 20.0015 34.26 20.0015 33.3333V25C20.0015 23.6739 19.4747 22.4021 18.537 21.4644C17.5994 20.5268 16.3276 20 15.0015 20H6.6665ZM6.6665 38.3333C5.77309 38.335 4.89571 38.0961 4.1265 37.6416L9.94984 31.8166C10.1842 31.5826 10.5019 31.4511 10.8332 31.4511C11.1644 31.4511 11.4821 31.5826 11.7165 31.8166L17.5398 37.64C16.7708 38.0949 15.8934 38.3344 14.9998 38.3333H6.6665ZM14.9998 26.6666C14.5578 26.6666 14.1339 26.4911 13.8213 26.1785C13.5088 25.8659 13.3332 25.442 13.3332 25C13.3332 24.558 13.5088 24.134 13.8213 23.8215C14.1339 23.5089 14.5578 23.3333 14.9998 23.3333C15.4419 23.3333 15.8658 23.5089 16.1783 23.8215C16.4909 24.134 16.6665 24.558 16.6665 25C16.6665 25.442 16.4909 25.8659 16.1783 26.1785C15.8658 26.4911 15.4419 26.6666 14.9998 26.6666Z" fill="white" fill-opacity="0.5"/>
</svg>
