<svg width="34" height="29" viewBox="0 0 34 29" fill="none" xmlns="http://www.w3.org/2000/svg">
<path d="M29.5 3.75H25.1719L23.0469 0.562498C22.9338 0.38822 22.7786 0.245297 22.5956 0.146969C22.4126 0.0486417 22.2077 -0.00190958 22 -1.31658e-06H12C11.7923 -0.00190958 11.5874 0.0486417 11.4044 0.146969C11.2214 0.245297 11.0662 0.38822 10.9531 0.562498L8.82812 3.75H4.5C3.5067 3.75411 2.55527 4.15052 1.85289 4.85289C1.15052 5.55526 0.754113 6.5067 0.75 7.5V25C0.754113 25.9933 1.15052 26.9447 1.85289 27.6471C2.55527 28.3495 3.5067 28.7459 4.5 28.75H29.5C30.4933 28.7459 31.4447 28.3495 32.1471 27.6471C32.8495 26.9447 33.2459 25.9933 33.25 25V7.5C33.2459 6.5067 32.8495 5.55526 32.1471 4.85289C31.4447 4.15052 30.4933 3.75411 29.5 3.75ZM30.75 25C30.75 25.3315 30.6183 25.6495 30.3839 25.8839C30.1495 26.1183 29.8315 26.25 29.5 26.25H4.5C4.16848 26.25 3.85054 26.1183 3.61612 25.8839C3.3817 25.6495 3.25 25.3315 3.25 25V7.5C3.25 7.16848 3.3817 6.85054 3.61612 6.61612C3.85054 6.38169 4.16848 6.25 4.5 6.25H9.5C9.70773 6.25191 9.91259 6.20136 10.0956 6.10303C10.2786 6.0047 10.4338 5.86178 10.5469 5.6875L12.6719 2.5H21.3281L23.4531 5.6875C23.5662 5.86178 23.7214 6.0047 23.9044 6.10303C24.0874 6.20136 24.2923 6.25191 24.5 6.25H29.5C29.8315 6.25 30.1495 6.38169 30.3839 6.61612C30.6183 6.85054 30.75 7.16848 30.75 7.5V25ZM22.2969 19.1562C22.4145 19.2712 22.508 19.4085 22.5718 19.5601C22.6356 19.7117 22.6685 19.8746 22.6685 20.0391C22.6685 20.2036 22.6356 20.3664 22.5718 20.518C22.508 20.6696 22.4145 20.8069 22.2969 20.9219C21.6028 21.6201 20.7775 22.1742 19.8684 22.5524C18.9594 22.9305 17.9845 23.1251 17 23.1251C16.0155 23.1251 15.0406 22.9305 14.1316 22.5524C13.2225 22.1742 12.3972 21.6201 11.7031 20.9219H11.6875L10.9531 20.1562L10.7344 21.4531C10.6833 21.7443 10.5319 22.0084 10.3064 22.1997C10.0809 22.3909 9.79563 22.4971 9.5 22.5H9.29688C9.13472 22.4734 8.97939 22.4152 8.83977 22.3285C8.70015 22.2419 8.57899 22.1286 8.48321 21.9951C8.38742 21.8616 8.31891 21.7105 8.28157 21.5504C8.24424 21.3904 8.23882 21.2246 8.26562 21.0625L8.89062 17.3125C8.93515 17.0552 9.05816 16.818 9.24278 16.6334C9.4274 16.4488 9.6646 16.3258 9.92188 16.2812L13.6719 15.6562C13.9993 15.6024 14.3346 15.6808 14.6042 15.8742C14.8738 16.0676 15.0555 16.3601 15.1094 16.6875C15.1632 17.0149 15.0849 17.3502 14.8915 17.6198C14.6981 17.8894 14.4055 18.0711 14.0781 18.125L12.6719 18.3594L13.4688 19.1875C14.4098 20.1143 15.6793 20.631 17 20.625C17.6568 20.6282 18.3077 20.4999 18.9141 20.2476C19.5206 19.9954 20.0704 19.6243 20.5312 19.1562C20.7656 18.9225 21.0831 18.7912 21.4141 18.7912C21.7451 18.7912 22.0625 18.9225 22.2969 19.1562ZM25.7344 10.2031L25.1094 13.9531C25.0648 14.2104 24.9418 14.4476 24.7572 14.6322C24.5726 14.8168 24.3354 14.9398 24.0781 14.9844L20.3281 15.6094H20.125C19.8294 15.6065 19.5441 15.5003 19.3186 15.309C19.0931 15.1178 18.9417 14.8537 18.8906 14.5625C18.8638 14.4004 18.8692 14.2346 18.9066 14.0746C18.9439 13.9145 19.0124 13.7634 19.1082 13.6299C19.204 13.4964 19.3252 13.3831 19.4648 13.2965C19.6044 13.2098 19.7597 13.1516 19.9219 13.125L21.3281 12.8906L20.5312 12.0625C19.5902 11.1357 18.3207 10.619 17 10.625C16.3432 10.6218 15.6923 10.7501 15.0859 11.0024C14.4794 11.2546 13.9296 11.6257 13.4688 12.0937C13.2344 12.3275 12.9169 12.4588 12.5859 12.4588C12.2549 12.4588 11.9375 12.3275 11.7031 12.0937C11.5855 11.9788 11.492 11.8415 11.4282 11.6899C11.3644 11.5383 11.3315 11.3754 11.3315 11.2109C11.3315 11.0464 11.3644 10.8836 11.4282 10.732C11.492 10.5804 11.5855 10.4431 11.7031 10.3281C12.3972 9.62988 13.2225 9.07576 14.1316 8.69764C15.0406 8.31952 16.0155 8.12486 17 8.12486C17.9845 8.12486 18.9594 8.31952 19.8684 8.69764C20.7775 9.07576 21.6028 9.62988 22.2969 10.3281C22.3125 10.3281 22.3125 10.3281 22.3125 10.3437L23.0469 11.0937L23.2656 9.79687C23.3195 9.4695 23.5012 9.17693 23.7708 8.98353C24.0404 8.79014 24.3757 8.71175 24.7031 8.76562C25.0305 8.8195 25.3231 9.00121 25.5165 9.27079C25.7099 9.54038 25.7882 9.87575 25.7344 10.2031Z" fill="white" fill-opacity="0.5"/>
</svg>
