<svg width="40" height="40" viewBox="0 0 40 40" fill="none" xmlns="http://www.w3.org/2000/svg">
<path d="M18.645 34.8408C18.7819 35.0791 18.9793 35.2771 19.2172 35.4148C19.455 35.5524 19.725 35.6249 19.9999 35.6249C20.2747 35.6249 20.5447 35.5524 20.7826 35.4148C21.0205 35.2771 21.2178 35.0791 21.3547 34.8408L37.6898 6.40569C37.8263 6.16812 37.8979 5.89882 37.8975 5.62483C37.897 5.35084 37.8245 5.08177 37.6873 4.84464C37.55 4.6075 37.3528 4.41062 37.1155 4.27375C36.8781 4.13688 36.6089 4.06483 36.3349 4.06483L3.66479 4.06483C3.39081 4.06484 3.12164 4.13689 2.88429 4.27375C2.64694 4.41062 2.44976 4.60749 2.31251 4.84462C2.17525 5.08174 2.10277 5.35079 2.10232 5.62477C2.10188 5.89876 2.17348 6.16804 2.30995 6.40562L18.645 34.8408ZM34.7152 6.56483L19.9999 32.1804L5.28456 6.56483L34.7152 6.56483Z" fill="white"/>
</svg>
