<svg width="40" height="40" viewBox="0 0 40 40" fill="none" xmlns="http://www.w3.org/2000/svg">
<path d="M5.86328 25.8382C5.90795 23.0068 6.69651 20.4594 8.11511 18.2569C9.57685 16.0677 11.2006 13.9375 12.5563 11.9017C14.7083 8.58285 16.5326 5.14506 17.648 1.61822C18.0357 0.511922 18.9159 -0.113711 19.9999 0.0169224C21.208 -0.0572442 22.0446 0.586256 22.3518 1.61826C23.5263 5.43716 25.3992 8.77526 27.4686 11.9017C28.8817 14.2057 30.4959 15.984 31.8847 18.2569C33.3914 20.6515 34.1229 23.2421 34.1365 25.8382C34.0505 29.7113 32.5266 33.3118 30.0206 35.8714C27.2256 38.557 23.5484 39.9743 19.9999 39.9998C16.1287 39.9174 12.5381 38.3809 9.99168 35.8714C7.31165 33.0674 5.88881 29.3901 5.86328 25.8382ZM12.0684 28.9658C12.1612 31.0048 13.781 32.4942 15.5963 32.5187C17.6535 32.4277 19.1004 30.7804 19.1242 28.9658C19.1242 28.2485 18.9407 27.623 18.5737 27.0892C18.1704 26.5643 17.7727 26.021 17.4479 25.5004C16.9331 24.6598 16.4298 23.8239 16.1718 22.9358C16.1051 22.6022 15.9133 22.4604 15.5963 22.5105C15.296 22.4437 15.0959 22.5855 14.9958 22.9358C14.726 23.8872 14.2545 24.7258 13.7573 25.5004C13.4075 26.0841 12.9883 26.5383 12.6189 27.0892C12.2352 27.6397 12.0517 28.2652 12.0684 28.9658Z" fill="white" fill-opacity="0.5"/>
</svg>
