<svg width="100" height="100" viewBox="0 0 100 100" fill="none" xmlns="http://www.w3.org/2000/svg">
<path d="M83.3334 20.8333H43.3917L36.2792 13.7208C35.8928 13.3333 35.4336 13.026 34.9281 12.8165C34.4226 12.607 33.8806 12.4994 33.3334 12.5H16.6667C12.0709 12.5 8.33337 16.2375 8.33337 20.8333V79.1667C8.33337 83.7625 12.0709 87.5 16.6667 87.5H83.3334C87.9292 87.5 91.6667 83.7625 91.6667 79.1667V29.1667C91.6667 24.5708 87.9292 20.8333 83.3334 20.8333ZM66.6667 58.3333H54.1667V70.8333H45.8334V58.3333H33.3334V50H45.8334V37.5H54.1667V50H66.6667V58.3333Z" fill="white"/>
</svg>
